<svg width="92" height="31" viewBox="0 0 92 31" fill="none" xmlns="http://www.w3.org/2000/svg">
<path d="M22.3754 6.33362C22.5043 6.44642 22.5849 6.60758 22.6816 6.7365C24.9377 9.87896 27.21 13.0214 29.4661 16.1639C29.6917 16.4862 29.6917 16.4056 29.4661 16.7279C26.7104 20.6762 23.9708 24.6405 21.2151 28.5887C20.7155 29.3139 20.1998 30.0391 19.7003 30.7643C19.5875 30.9254 19.4747 30.9738 19.2813 30.9738C15.5264 30.9738 11.7877 30.9738 8.03287 30.9738C7.95229 30.9738 7.87171 30.9899 7.79114 30.9415C7.80725 30.8287 7.88783 30.7482 7.95229 30.6676C9.25762 28.8627 10.563 27.0578 11.8683 25.2529C13.931 22.4005 15.9777 19.5642 18.0404 16.7118C18.1049 16.6312 18.1854 16.5345 18.1854 16.4217C18.3305 15.9705 18.6689 15.6482 18.9267 15.2776C19.7808 14.085 20.6511 12.9086 21.4891 11.7161C22.1659 10.7492 22.601 9.68558 22.5688 8.47694C22.5527 7.89679 22.4399 7.33276 22.3271 6.76873C22.3109 6.67204 22.2948 6.57535 22.2787 6.47866C22.2787 6.41419 22.2787 6.34973 22.3754 6.33362Z" fill="#005B9B"/>
<path d="M22.3758 6.33364C22.4241 6.62371 22.4724 6.91378 22.5369 7.20386C22.6014 7.57451 22.6658 7.96127 22.6819 8.34804C22.7303 9.07322 22.6014 9.76618 22.3274 10.4269C22.1018 10.9748 21.8278 11.4905 21.4733 11.974C20.4419 13.3921 19.4106 14.8264 18.3953 16.2445C18.347 16.3251 18.2986 16.4218 18.2019 16.4379C17.5734 15.5838 16.961 14.7297 16.3326 13.8917C14.5277 11.426 12.7227 8.96042 10.9017 6.49479C9.90259 5.14111 8.93568 3.80355 7.95265 2.46599C7.9043 2.40153 7.87207 2.35318 7.83984 2.28872C7.87207 2.20814 7.93653 2.24038 7.98488 2.24038C8.03323 2.24038 8.06546 2.24038 8.1138 2.24038C11.8203 2.24038 15.5107 2.24038 19.2172 2.24038C19.3944 2.24038 19.5072 2.28872 19.6201 2.43376C20.5225 3.73909 21.4572 5.02831 22.3758 6.33364Z" fill="#5AC8E8"/>
<path d="M10.0311 9.57288C10.0956 9.62122 10.1439 9.7018 10.1923 9.78237C11.7393 11.9418 13.3025 14.0851 14.8496 16.2446C15.0591 16.5346 15.043 16.4863 14.8657 16.7603C12.6418 19.935 10.4179 23.1258 8.2101 26.3166C8.11341 26.4616 8.00061 26.51 7.82334 26.51C5.29325 26.51 2.74705 26.51 0.216965 26.51C0.152504 26.51 0.0558133 26.5422 0.00746771 26.4616C-0.0247627 26.381 0.0558133 26.3327 0.0880437 26.2682C2.18302 23.3675 4.278 20.4506 6.37297 17.5499C6.58247 17.2759 6.77585 16.9859 6.98535 16.7119C7.0337 16.6313 7.11427 16.5669 7.11427 16.4541C7.1465 16.2446 7.29154 16.0995 7.40434 15.9384C8.01672 15.1004 8.6291 14.2624 9.22536 13.4083C9.59601 12.8765 9.83774 12.2641 10.0311 11.6517C10.1762 11.1361 10.1117 10.6204 9.99889 10.1047C9.96666 9.97576 9.95055 9.86295 9.93443 9.73403C9.91831 9.66957 9.9022 9.57288 10.0311 9.57288Z" fill="#005B9B"/>
<path d="M10.0312 9.57285C10.0312 9.73401 10.0795 9.87904 10.0956 10.0241C10.1601 10.3786 10.2084 10.717 10.2084 11.0716C10.2084 11.4261 10.144 11.7806 9.99894 12.1029C9.8539 12.4414 9.69275 12.7959 9.54771 13.1343C9.48325 13.2794 9.37045 13.4083 9.28987 13.5372C8.64526 14.4235 8.00065 15.3099 7.37216 16.2123C7.3077 16.309 7.24324 16.4057 7.13043 16.4702C6.2441 15.2615 5.35776 14.0529 4.47143 12.8442C3.03717 10.8943 1.5868 8.92825 0.168667 6.97831C0.120321 6.91385 0.00751462 6.83327 0.0558602 6.75269C0.104206 6.656 0.233128 6.70435 0.313704 6.70435C2.77933 6.70435 5.26107 6.70435 7.7267 6.70435C7.93619 6.70435 8.06512 6.76881 8.17792 6.92996C8.74195 7.73572 9.3221 8.54148 9.90225 9.34724C9.93448 9.4117 9.98282 9.49228 10.0312 9.57285Z" fill="#FBB325"/>
<path d="M48.1596 12.0062C49.4811 12.0062 50.8187 12.0062 52.1401 12.0062C52.4785 12.0062 52.4785 12.0062 52.4785 12.3447C52.5108 13.4083 52.5591 14.4719 52.5913 15.5355C52.6236 16.5991 52.5752 17.6466 52.3818 18.6941C52.2207 19.5482 51.9467 20.3539 51.4794 21.0952C51.1248 21.6593 50.6736 22.1427 50.1418 22.5456C48.8687 23.4964 47.4667 24.1088 45.8874 24.3505C45.0978 24.4794 44.3081 24.5922 43.5185 24.5922C40.5049 24.6406 37.8459 23.7381 35.7026 21.5626C34.4295 20.2733 33.5754 18.7424 33.0436 17.0181C32.5601 15.4871 32.3829 13.9401 32.4957 12.3447C32.6246 10.427 33.1403 8.60593 34.1717 6.9783C35.622 4.67382 37.7009 3.23957 40.3277 2.57885C41.6652 2.25654 43.0189 2.15985 44.3887 2.24043C46.0969 2.33712 47.7568 2.69165 49.4005 3.19122C49.8356 3.32015 50.2546 3.51353 50.6253 3.8036C51.0604 4.14202 51.3988 4.57713 51.56 5.12505C51.8823 6.15642 51.4633 7.23614 50.5447 7.84852C50.1096 8.13859 49.6261 8.28363 49.1104 8.33198C48.2563 8.42867 47.4345 8.28363 46.6287 7.99356C46.0324 7.78406 45.4201 7.63902 44.7755 7.55844C43.9697 7.46175 43.1639 7.42952 42.3582 7.57456C40.5533 7.89686 39.2479 8.87989 38.555 10.5881C37.6525 12.7798 37.8943 15.7289 39.6669 17.7916C40.6339 18.9358 41.8908 19.5643 43.3734 19.7415C44.1631 19.8382 44.9527 19.7738 45.7263 19.6126C45.9358 19.5643 46.1453 19.4837 46.3547 19.4031C46.9349 19.1292 47.3217 18.6941 47.4828 18.0656C47.5956 17.6627 47.6117 17.2276 47.6117 16.8086C47.6117 16.583 47.5795 16.5668 47.3539 16.583C46.7576 16.6313 46.1775 16.5507 45.6296 16.309C44.7593 15.9222 44.2275 15.2615 43.9214 14.3752C43.6957 13.6822 43.6635 12.9893 43.8247 12.2802C43.8891 12.0062 43.9052 11.9901 44.1792 11.9901C45.4845 12.0062 46.8221 12.0062 48.1596 12.0062Z" fill="#005B9B"/>
<path d="M82.3081 24.6244C80.7933 24.6405 79.3751 24.4632 78.0053 24.0281C74.5244 22.8839 72.2844 20.5472 71.2531 17.0341C70.8663 15.7127 70.7535 14.3751 70.8341 13.0053C70.963 10.9587 71.527 9.0571 72.6067 7.31666C74.2021 4.72211 76.4744 3.09447 79.4718 2.4821C80.5515 2.25648 81.6313 2.22425 82.7271 2.30483C84.3708 2.43375 85.9501 2.83663 87.4972 3.41678C88.1579 3.67462 88.6897 4.0775 89.0604 4.68988C89.2215 4.96384 89.3182 5.25391 89.3504 5.5601C89.4149 6.3014 89.1409 6.88155 88.5447 7.31666C88.1418 7.60673 87.6906 7.73565 87.2071 7.80011C86.353 7.91292 85.5311 7.75177 84.7093 7.55839C84.3386 7.4617 83.9841 7.31666 83.5973 7.2522C82.4531 7.05882 81.3251 7.10716 80.2453 7.51004C78.8594 8.02573 77.8281 8.96041 77.1029 10.2335C76.4905 11.2971 76.1843 12.4574 76.1843 13.6822C76.1843 15.4065 76.7322 16.9374 77.9086 18.2267C78.3276 18.6779 78.8111 19.0002 79.3751 19.2258C80.052 19.4998 80.7449 19.6287 81.454 19.7093C82.711 19.8382 83.9679 19.7576 85.2088 19.4998C85.4667 19.4514 85.7245 19.3708 85.9823 19.3064C86.5303 19.1613 87.0621 19.0969 87.6261 19.2258C88.4963 19.4192 89.1087 19.9349 89.3827 20.8051C89.6405 21.6592 89.431 22.4327 88.8347 23.1096C88.4641 23.5124 87.9968 23.7703 87.4811 23.9476C86.7075 24.2054 85.9018 24.3665 85.0799 24.4794C84.1291 24.5599 83.1783 24.6244 82.3081 24.6244Z" fill="#005B9B"/>
<path d="M53.8487 29.1849C53.7842 29.2816 53.8004 29.3622 53.8004 29.4428C53.8004 29.8618 53.8004 30.2647 53.8004 30.6837C53.8004 30.7642 53.8326 30.877 53.7198 30.9254C53.5909 30.9737 53.4619 30.9737 53.333 30.9254C53.2847 30.9093 53.2686 30.8609 53.2686 30.8126C53.2686 30.7481 53.2686 30.6998 53.2686 30.6353C53.2686 29.9101 53.2686 29.1688 53.2686 28.4436C53.2686 28.3953 53.2686 28.3631 53.2686 28.3147C53.2847 28.1536 53.3008 28.1375 53.4781 28.1213C53.5103 28.1213 53.5425 28.1213 53.5586 28.1213C53.752 28.0891 53.8648 28.1697 53.9615 28.347C54.2355 28.7982 54.5094 29.2494 54.7834 29.7006C54.8317 29.7651 54.8478 29.8457 54.9445 29.8779C54.9929 29.7973 54.9768 29.7167 54.9768 29.6362C54.9768 29.2172 54.9768 28.7982 54.9768 28.3792C54.9768 28.2986 54.9607 28.1858 55.0573 28.1375C55.1863 28.0891 55.3152 28.0891 55.4441 28.1375C55.4763 28.1536 55.4925 28.1858 55.4925 28.2341C55.4925 28.2986 55.5086 28.347 55.5086 28.4114C55.5086 29.1688 55.5086 29.9101 55.5086 30.6675C55.5086 30.6998 55.5086 30.7481 55.5086 30.7803C55.4925 30.9093 55.4763 30.9415 55.3313 30.9576C55.283 30.9576 55.2346 30.9576 55.2024 30.9576C55.0251 30.9898 54.9123 30.8932 54.8156 30.7481C54.5417 30.2969 54.2677 29.8457 53.9776 29.3944C53.9615 29.3139 53.9293 29.2333 53.8487 29.1849Z" fill="#005B9B"/>
<path d="M37.0398 29.8618C37.0881 29.7651 37.072 29.6845 37.072 29.6039C37.072 29.1849 37.072 28.7821 37.072 28.3631C37.072 28.2664 37.0559 28.1536 37.1687 28.1213C37.2815 28.0891 37.4104 28.0891 37.5393 28.1375C37.5877 28.1536 37.5877 28.2019 37.5877 28.2503C37.5877 28.3147 37.5877 28.3631 37.5877 28.4275C37.5877 29.1688 37.5877 29.9101 37.5877 30.6353C37.5877 30.6675 37.5877 30.6998 37.5877 30.7159C37.5716 30.8932 37.5554 30.9254 37.3782 30.9254C37.3298 30.9254 37.2815 30.9254 37.2493 30.9254C37.0881 30.9415 36.9914 30.877 36.9108 30.732C36.6369 30.2647 36.3468 29.8134 36.0567 29.3622C36.0084 29.2978 35.9923 29.2172 35.8956 29.1688C35.8311 29.2494 35.8472 29.33 35.8472 29.4106C35.8472 29.7973 35.8472 30.1841 35.8472 30.5547C35.8472 30.6192 35.8472 30.6675 35.8472 30.732C35.8472 30.7642 35.8472 30.8126 35.8311 30.8448C35.7505 30.9737 35.6216 30.9093 35.5088 30.9254C35.4121 30.9254 35.3477 30.8932 35.3315 30.7965C35.3154 30.732 35.3154 30.6837 35.3154 30.6192C35.3154 29.8779 35.3154 29.1366 35.3154 28.4114C35.3154 28.1052 35.3315 28.1052 35.6377 28.0891C35.815 28.0891 35.9278 28.1536 36.0084 28.2986C36.2823 28.7498 36.5563 29.2011 36.8464 29.6523C36.9269 29.7329 36.9592 29.8134 37.0398 29.8618Z" fill="#005B9B"/>
<path d="M67.6106 29.4107C67.7396 29.4107 67.8685 29.4107 68.0135 29.4107C68.1747 29.4107 68.2069 29.4429 68.223 29.6041C68.223 29.8619 68.223 30.1359 68.223 30.3937C68.223 30.5065 68.1908 30.5871 68.0941 30.6354C67.5139 30.99 66.9177 31.1028 66.2892 30.8127C66.0152 30.6999 65.838 30.4904 65.7252 30.2164C65.5318 29.7652 65.5157 29.314 65.6929 28.8628C65.8863 28.3793 66.257 28.1054 66.7888 28.057C67.0466 28.0409 67.2883 28.0409 67.5301 28.1215C67.8201 28.2182 68.0296 28.4115 68.1424 28.6855C68.2069 28.8305 68.1747 28.8628 68.0296 28.895C67.9652 28.9111 67.9168 28.9111 67.8524 28.9272C67.7396 28.9433 67.6429 28.9272 67.5784 28.8144C67.4173 28.5566 67.1594 28.476 66.8693 28.5243C66.547 28.5727 66.3375 28.7338 66.2408 29.04C66.1442 29.3462 66.1603 29.6524 66.257 29.9586C66.3859 30.3131 66.7082 30.5226 67.0788 30.4743C67.24 30.4582 67.385 30.4098 67.5139 30.3292C67.6429 30.2648 67.6751 30.1681 67.6751 30.0392C67.6751 29.9264 67.6268 29.878 67.5139 29.878C67.4173 29.878 67.3044 29.878 67.2078 29.878C67.0627 29.8619 67.0305 29.8458 67.0305 29.6846C67.0305 29.6685 67.0305 29.6524 67.0305 29.6363C67.0305 29.4429 67.0627 29.3946 67.2561 29.3946C67.3367 29.4107 67.4817 29.4107 67.6106 29.4107Z" fill="#005B9B"/>
<path d="M45.7104 29.4106C45.8555 29.4106 45.9844 29.4106 46.1294 29.4106C46.2745 29.4106 46.3067 29.4589 46.3067 29.6039C46.3067 29.8618 46.3067 30.1357 46.3067 30.3936C46.3067 30.5064 46.2745 30.587 46.1778 30.6353C45.5976 30.9898 45.0014 31.1027 44.3729 30.8126C44.1311 30.6998 43.9539 30.5225 43.8411 30.2969C43.5832 29.7651 43.5671 29.2333 43.8411 28.7015C44.0345 28.3308 44.3568 28.1052 44.7919 28.0569C45.0497 28.0246 45.3237 28.0246 45.5815 28.1052C45.8716 28.1858 46.065 28.3631 46.1939 28.637C46.2745 28.8143 46.2422 28.8626 46.065 28.8949C46.0005 28.911 45.936 28.9271 45.8716 28.9271C45.7749 28.9432 45.7104 28.911 45.646 28.8304C45.4526 28.5242 45.1786 28.4759 44.8563 28.5403C44.534 28.6048 44.3406 28.8143 44.2762 29.1366C44.2117 29.3783 44.2278 29.6362 44.2923 29.8779C44.4051 30.313 44.7758 30.5547 45.2109 30.4742C45.3398 30.458 45.4687 30.3936 45.5815 30.3452C45.6943 30.2808 45.7427 30.2002 45.7265 30.0713C45.7104 29.9262 45.6943 29.894 45.5332 29.8779C45.4365 29.8779 45.3398 29.8779 45.2431 29.8779C45.0981 29.8618 45.0819 29.8457 45.0658 29.7006C45.0336 29.4589 45.0819 29.3944 45.3398 29.3944C45.4848 29.4106 45.5976 29.4106 45.7104 29.4106Z" fill="#005B9B"/>
<path d="M79.9066 28.0408C80.1161 28.0408 80.3095 28.0569 80.4867 28.1375C80.7285 28.2503 80.8896 28.4275 80.9541 28.6854C80.9863 28.8465 80.9541 28.8949 80.809 28.8949C80.7446 28.8949 80.6801 28.8949 80.6157 28.8949C80.5029 28.8949 80.4384 28.8626 80.3901 28.766C80.245 28.492 79.8099 28.4114 79.5359 28.5887C79.3909 28.7015 79.3909 28.8626 79.5359 28.9755C79.6488 29.056 79.7777 29.0883 79.9066 29.1205C80.1322 29.185 80.3578 29.2333 80.5673 29.3139C80.8574 29.4428 81.0347 29.6523 81.0669 29.9585C81.1152 30.3452 80.9057 30.7159 80.5351 30.8609C80.1644 31.006 79.7616 31.006 79.3909 30.877C79.0686 30.7642 78.8913 30.5225 78.8108 30.2002C78.7624 30.0391 78.7946 30.0068 78.9558 29.9746C78.988 29.9746 79.0364 29.9585 79.0686 29.9585C79.2781 29.9263 79.2942 29.9424 79.3909 30.1357C79.5521 30.4742 80.0194 30.6031 80.3417 30.3936C80.4545 30.313 80.519 30.2163 80.519 30.0874C80.519 29.9424 80.4223 29.8618 80.2934 29.8134C80.1483 29.7651 80.0033 29.7329 79.8421 29.6845C79.6649 29.6362 79.4715 29.5878 79.3103 29.4911C79.0364 29.33 78.8913 29.0883 78.9075 28.766C78.9397 28.4598 79.117 28.2503 79.3909 28.1375C79.5521 28.0569 79.7454 28.0569 79.9066 28.0408Z" fill="#005B9B"/>
<path d="M70.834 28.0408C71.0596 28.0408 71.2369 28.0569 71.3981 28.1213C71.6559 28.218 71.8332 28.4114 71.9137 28.6854C71.946 28.8465 71.9137 28.8788 71.7526 28.8949C71.6881 28.8949 71.6237 28.8949 71.5592 28.8949C71.4464 28.8949 71.3819 28.8626 71.3336 28.7498C71.1886 28.4759 70.7051 28.3953 70.4634 28.5887C70.3344 28.7015 70.3506 28.8626 70.4956 28.9593C70.6084 29.0399 70.7373 29.0721 70.8662 29.1044C71.0919 29.1688 71.3175 29.2172 71.5431 29.3139C71.817 29.4428 71.9782 29.6362 72.0265 29.9263C72.091 30.3291 71.8815 30.6998 71.5109 30.8448C71.1241 30.9899 70.7373 30.9899 70.3506 30.8448C70.0283 30.732 69.851 30.4742 69.7704 30.1357C69.7382 30.0068 69.7704 29.9907 69.8993 29.9585C69.9477 29.9424 69.996 29.9424 70.0444 29.9424C70.2378 29.9263 70.2539 29.9263 70.3506 30.1196C70.5117 30.4581 70.9791 30.587 71.3014 30.3775C71.4142 30.313 71.4786 30.2002 71.4786 30.0713C71.4786 29.9263 71.3819 29.8457 71.253 29.7973C71.108 29.749 70.9791 29.7168 70.834 29.6684C70.6568 29.6201 70.4795 29.5717 70.3183 29.4911C70.0121 29.33 69.851 29.1044 69.8671 28.7498C69.8832 28.4437 70.0927 28.1858 70.415 28.073C70.4634 28.0569 70.5278 28.0408 70.5923 28.0247C70.6568 28.0569 70.7696 28.0569 70.834 28.0408Z" fill="#005B9B"/>
<path d="M32.7052 29.5072C32.7052 29.1205 32.7052 28.7337 32.7052 28.3631C32.7052 28.1375 32.7374 28.1052 32.963 28.1052C33.4948 28.1052 34.0266 28.1052 34.5584 28.1052C34.8002 28.1052 34.8324 28.1697 34.8163 28.3953C34.8002 28.5081 34.7679 28.5564 34.6551 28.5564C34.5907 28.5564 34.5262 28.5564 34.4618 28.5564C34.1395 28.5564 33.8333 28.5564 33.511 28.5564C33.3176 28.5564 33.3015 28.5887 33.2853 28.7821C33.2692 29.1849 33.2692 29.2011 33.6882 29.2011C33.9622 29.2011 34.2361 29.2011 34.5101 29.2011C34.5907 29.2011 34.6874 29.1849 34.7035 29.2977C34.7357 29.4106 34.7518 29.5234 34.6713 29.6201C34.6229 29.6845 34.5423 29.6684 34.4779 29.6684C34.1878 29.6684 33.8977 29.6684 33.6238 29.6684C33.5593 29.6684 33.511 29.6684 33.4465 29.6684C33.3498 29.6684 33.2853 29.7329 33.2853 29.8296C33.2853 29.9746 33.2853 30.1035 33.2853 30.2485C33.2853 30.4097 33.3176 30.4419 33.4787 30.4419C33.656 30.4419 33.8494 30.4419 34.0266 30.4419C34.22 30.4419 34.4134 30.4419 34.6068 30.4419C34.8485 30.4419 34.9452 30.6192 34.8485 30.8448C34.8324 30.8932 34.8002 30.9093 34.7518 30.9254C34.6874 30.9254 34.639 30.9415 34.5746 30.9415C34.0589 30.9415 33.5271 30.9415 33.0114 30.9415C32.7374 30.9415 32.7213 30.9254 32.7213 30.6353C32.7052 30.2647 32.7052 29.8779 32.7052 29.5072Z" fill="#005B9B"/>
<path d="M38.2324 29.5073C38.2324 29.1366 38.2324 28.7498 38.2324 28.3792C38.2324 28.1213 38.2485 28.0891 38.5064 28.0891C39.0382 28.0891 39.57 28.0891 40.1018 28.0891C40.3113 28.0891 40.3435 28.1375 40.3435 28.3308C40.3435 28.5081 40.3113 28.5403 40.134 28.5403C39.8117 28.5403 39.4894 28.5403 39.1671 28.5403C39.1026 28.5403 39.0382 28.5403 38.9737 28.5403C38.877 28.5403 38.8287 28.5887 38.8126 28.6854C38.8126 28.7015 38.8126 28.7176 38.8126 28.7337C38.8126 29.1849 38.7965 29.1849 39.2154 29.1688C39.4733 29.1688 39.7472 29.1688 40.0051 29.1688C40.0857 29.1688 40.1824 29.1527 40.2146 29.2655C40.2468 29.3622 40.2468 29.475 40.1985 29.5717C40.1501 29.6523 40.0696 29.6362 40.0051 29.6362C39.7472 29.6362 39.4733 29.6362 39.2154 29.6362C38.8126 29.6362 38.8126 29.6362 38.8126 30.0391C38.8126 30.4258 38.8126 30.4258 39.1832 30.4258C39.5216 30.4258 39.8439 30.4258 40.1824 30.4258C40.2629 30.4258 40.3596 30.4097 40.3919 30.5064C40.4241 30.6192 40.4402 30.7481 40.3757 30.8448C40.3274 30.9093 40.2468 30.8932 40.1662 30.8932C39.7795 30.8932 39.3927 30.8932 39.0221 30.8932C38.8448 30.8932 38.6675 30.8932 38.4903 30.8932C38.2969 30.8932 38.2647 30.8609 38.2485 30.6675C38.2324 30.313 38.2324 29.9101 38.2324 29.5073Z" fill="#005B9B"/>
<path d="M76.5385 29.5073C76.5385 29.6846 76.5546 29.8618 76.603 30.0391C76.6997 30.3131 76.9092 30.4903 77.1831 30.5064C77.4571 30.5226 77.6666 30.3936 77.7955 30.1197C77.8922 29.9102 77.8922 29.9102 78.1017 29.9908C78.424 30.0874 78.4401 30.1197 78.279 30.4259C78.0533 30.8449 77.6021 31.0544 77.1025 30.9899C76.5546 30.9254 76.1679 30.587 76.0228 30.0552C75.91 29.6684 75.9261 29.2817 76.0551 28.8949C76.2323 28.3953 76.603 28.1053 77.1348 28.0569C77.3926 28.0408 77.6343 28.0569 77.86 28.1697C78.0856 28.2825 78.2467 28.4437 78.3273 28.6693C78.3918 28.8305 78.3756 28.8627 78.2145 28.911C78.1823 28.9272 78.15 28.9271 78.1339 28.9271C77.8922 28.9916 77.8922 28.9916 77.7472 28.7821C77.6021 28.5887 77.4087 28.5082 77.167 28.5243C76.9092 28.5404 76.7158 28.6693 76.6191 28.911C76.5546 29.1044 76.5385 29.2978 76.5385 29.5073Z" fill="#005B9B"/>
<path d="M46.9668 28.1053C47.1602 28.0569 47.2892 28.1697 47.3858 28.3631C47.4825 28.5726 47.6115 28.7499 47.7404 28.9594C47.9015 29.2172 47.9015 29.2172 48.0627 28.9433C48.1916 28.7338 48.3205 28.5243 48.4333 28.3148C48.5139 28.1697 48.6106 28.0892 48.7879 28.1053C48.9007 28.1214 49.0618 28.0569 49.1263 28.1536C49.1907 28.2503 49.0618 28.3631 48.9974 28.4598C48.7717 28.8305 48.53 29.2172 48.2883 29.5879C48.2077 29.7007 48.1755 29.8296 48.1755 29.9585C48.1755 30.2164 48.1755 30.4742 48.1755 30.7321C48.1755 30.9254 48.1433 30.9416 47.9499 30.9577H47.9338C47.6276 30.9577 47.6115 30.9416 47.6115 30.6354C47.6115 30.4098 47.6115 30.2003 47.6115 29.9746C47.6115 29.8135 47.5792 29.6846 47.4986 29.5557C47.2569 29.1689 47.0152 28.7821 46.7573 28.3954C46.7412 28.3631 46.7251 28.347 46.709 28.3148C46.5962 28.1375 46.6123 28.1053 46.8379 28.1053C46.8702 28.1053 46.9024 28.1053 46.9668 28.1053Z" fill="#005B9B"/>
<path d="M73.7179 29.7491C73.7179 30.0714 73.7179 30.3776 73.7179 30.6999C73.7179 30.9255 73.7018 30.9416 73.4762 30.9416C73.4279 30.9416 73.3795 30.9416 73.3151 30.9416C73.2023 30.9416 73.1539 30.8772 73.1539 30.7805C73.1539 30.716 73.1539 30.6515 73.1539 30.5871C73.1539 30.0069 73.1539 29.4268 73.1539 28.8466C73.1539 28.6049 73.1378 28.5888 72.8799 28.5727C72.7349 28.5727 72.606 28.5727 72.461 28.5727C72.332 28.5566 72.2998 28.5243 72.2998 28.3632C72.2998 28.1859 72.332 28.1376 72.461 28.1215C72.5093 28.1215 72.5576 28.1215 72.6221 28.1215C73.1539 28.1215 73.7018 28.1215 74.2336 28.1215C74.2659 28.1215 74.2981 28.1215 74.3142 28.1215C74.5237 28.1376 74.6204 28.2987 74.5398 28.5082C74.5076 28.5727 74.4592 28.5888 74.3948 28.5888C74.2497 28.5888 74.1047 28.5888 73.9597 28.5888C73.7663 28.5888 73.7341 28.621 73.7179 28.8305C73.7179 29.1206 73.7179 29.4268 73.7179 29.7491Z" fill="#005B9B"/>
<path d="M85.4498 29.7329C85.4498 29.4268 85.4498 29.1206 85.4498 28.8305C85.4498 28.6049 85.4176 28.5726 85.192 28.5726C85.0469 28.5726 84.918 28.5726 84.773 28.5726C84.6279 28.5565 84.5957 28.5243 84.5957 28.347C84.5957 28.1698 84.6279 28.1214 84.773 28.1214C84.9341 28.1053 85.0792 28.1214 85.2403 28.1214C85.6754 28.1214 86.0944 28.1214 86.5295 28.1214C86.594 28.1214 86.6585 28.1214 86.7229 28.1214C86.8035 28.1214 86.8518 28.1698 86.8518 28.2503C86.8518 28.3148 86.8518 28.3631 86.8518 28.4276C86.8518 28.5243 86.8035 28.5726 86.7068 28.5726C86.5618 28.5726 86.4167 28.5726 86.2717 28.5726C86.0622 28.5726 86.03 28.6049 86.03 28.8144C86.03 29.4106 86.03 30.0069 86.03 30.6032C86.03 30.9416 86.0138 30.9577 85.6754 30.9416C85.4982 30.9255 85.4659 30.9094 85.4659 30.7321C85.4498 30.3937 85.4498 30.0714 85.4498 29.7329Z" fill="#005B9B"/>
<path d="M60.1497 29.5235C60.1497 29.1367 60.1497 28.75 60.1497 28.3793C60.1497 28.1537 60.182 28.1215 60.4076 28.1215C60.4398 28.1215 60.4882 28.1215 60.5204 28.1215C60.6815 28.1376 60.7138 28.1537 60.7138 28.3148C60.7138 28.6049 60.7138 28.9111 60.7138 29.2012C60.7138 29.5396 60.7138 29.8619 60.7138 30.2003C60.7138 30.4582 60.7299 30.4743 60.9716 30.4743C61.2778 30.4743 61.584 30.4743 61.9063 30.4743C61.9869 30.4743 62.0836 30.442 62.1319 30.5387C62.1803 30.6515 62.1803 30.7644 62.1319 30.8772C62.0997 30.9416 62.0352 30.9416 61.9869 30.9416C61.858 30.9416 61.729 30.9416 61.584 30.9416C61.1811 30.9416 60.7943 30.9416 60.3915 30.9416C60.1981 30.9416 60.1659 30.9094 60.1497 30.716C60.1336 30.3131 60.1497 29.9102 60.1497 29.5235Z" fill="#005B9B"/>
<path d="M82.6945 29.5074C82.6945 29.1206 82.6945 28.7338 82.6945 28.3632C82.6945 28.1376 82.7106 28.1215 82.9362 28.1215C83.2424 28.1215 83.2585 28.1376 83.2585 28.4438C83.2585 28.9917 83.2585 29.5396 83.2585 30.0875C83.2585 30.1359 83.2585 30.1681 83.2585 30.2164C83.2585 30.4582 83.2746 30.4743 83.5163 30.4743C83.8064 30.4743 84.1126 30.4743 84.4027 30.4743C84.6766 30.4743 84.7411 30.5549 84.6927 30.8288C84.6766 30.9094 84.6444 30.9416 84.5638 30.9577C84.5155 30.9577 84.4832 30.9577 84.4349 30.9577C83.9514 30.9577 83.468 30.9577 82.9684 30.9577C82.7106 30.9577 82.6945 30.9416 82.6945 30.6999C82.6945 30.2809 82.6945 29.8941 82.6945 29.5074Z" fill="#005B9B"/>
<path d="M68.7227 29.5072C68.7227 29.1205 68.7227 28.7498 68.7227 28.3631C68.7227 28.1375 68.7549 28.1052 68.9805 28.1052C69.0127 28.1052 69.045 28.1052 69.0611 28.1052C69.2545 28.1213 69.2706 28.1375 69.2867 28.3308C69.2867 28.7821 69.2867 29.2333 69.2867 29.6845C69.2867 30.0229 69.2867 30.3775 69.2867 30.7159C69.2867 30.9254 69.2545 30.9415 69.0611 30.9415C69.0288 30.9415 68.9805 30.9415 68.9483 30.9415C68.771 30.9415 68.7227 30.9093 68.7227 30.7159C68.7227 30.313 68.7227 29.9101 68.7227 29.5072Z" fill="#005B9B"/>
<path d="M75.491 29.5234C75.491 29.9102 75.491 30.2808 75.491 30.6676C75.491 30.9093 75.4749 30.9254 75.2332 30.9416C75.1848 30.9416 75.1365 30.9416 75.072 30.9416C74.9915 30.9416 74.9431 30.8771 74.927 30.7965C74.927 30.7482 74.927 30.6998 74.927 30.6354C74.927 29.8941 74.927 29.1528 74.927 28.4115C74.927 28.1053 74.9592 28.0892 75.2654 28.1053C75.4749 28.1214 75.491 28.1375 75.491 28.3309C75.491 28.7338 75.491 29.1205 75.491 29.5234Z" fill="#005B9B"/>
<path d="M69.9635 8.38028C69.9152 7.62287 69.7863 6.88157 69.5284 6.1725C69.2384 5.36674 68.771 4.65767 68.1264 4.07752C67.4173 3.43292 66.5793 3.03004 65.6769 2.75608C64.3716 2.3532 63.0179 2.22428 61.6642 2.19204C59.7787 2.1437 57.8933 2.17593 56.0078 2.17593C55.9111 2.17593 55.8144 2.17593 55.7177 2.19204C55.1698 2.25651 54.7508 2.49823 54.5091 3.01392C54.4285 3.17507 54.3801 3.33622 54.3318 3.51349C54.2673 3.81968 54.2512 4.14198 54.2512 4.46429C54.2512 7.68733 54.2512 10.9265 54.2512 14.1495C54.2512 16.8408 54.2512 19.5159 54.2512 22.2071C54.2512 22.884 54.2512 23.5447 54.2512 24.2215C54.2512 24.4633 54.2673 24.4633 54.4768 24.5277C55.1376 24.6728 55.8144 24.7211 56.4912 24.6083C57.716 24.3988 58.6184 23.722 59.118 22.5778C59.392 21.9493 59.5048 21.2724 59.5048 20.5956C59.5048 19.0324 59.5048 17.4693 59.5048 15.9061C59.5048 15.8255 59.5048 15.7288 59.5048 15.6482C59.5048 15.5677 59.5531 15.5193 59.6498 15.5032C59.6982 15.5032 59.7304 15.5032 59.7787 15.5032C60.6328 15.5193 61.4708 15.471 62.3249 15.3743C63.4047 15.2615 64.4683 15.0359 65.4835 14.6652C66.386 14.3429 67.2401 13.9078 67.9975 13.2954C69.0127 12.4574 69.6573 11.4099 69.8991 10.1207C69.9958 9.50835 69.9958 8.94432 69.9635 8.38028ZM64.5649 9.92734C64.1782 10.6042 63.5658 10.9909 62.8084 11.1521C62.5505 11.2004 62.2927 11.2488 62.0187 11.2971C61.1002 11.4583 60.4556 11.974 60.0688 12.8281C59.8271 13.376 59.682 13.94 59.5853 14.5202C59.5692 14.6491 59.5531 14.7619 59.537 14.8908C59.5209 14.8908 59.5048 14.8908 59.4887 14.8908C59.4887 14.8103 59.4887 14.7136 59.4887 14.633C59.4887 12.0546 59.4887 9.47612 59.4887 6.88157C59.4887 6.52704 59.4887 6.52704 59.8271 6.41423C60.794 6.07581 61.777 5.99523 62.76 6.30142C63.3724 6.4948 63.8881 6.80099 64.291 7.30057C64.9195 8.05798 65.0323 9.12158 64.5649 9.92734Z" fill="#005B9B"/>
<path d="M43.3255 30.7481C43.3094 30.7159 43.2933 30.6998 43.2771 30.6675C43.0515 30.3291 42.8743 29.9585 42.5358 29.7006C42.6003 29.6362 42.6486 29.6201 42.697 29.6039C43.0838 29.4428 43.261 29.1366 43.1966 28.7498C43.1321 28.3631 42.8904 28.1375 42.4714 28.1052C42.4392 28.1052 42.3908 28.1052 42.3586 28.1052C41.9396 28.1052 41.5367 28.1052 41.1177 28.1052C40.9082 28.1052 40.876 28.1375 40.876 28.347C40.876 29.1205 40.876 29.9101 40.876 30.6837C40.876 30.9093 40.9082 30.9254 41.1177 30.9254C41.4239 30.9254 41.44 30.9254 41.44 30.6031C41.44 30.3614 41.44 30.1357 41.44 29.894C41.44 29.749 41.4722 29.7329 41.6173 29.7329C41.8107 29.7329 41.9718 29.7973 42.0846 29.9424C42.2297 30.1519 42.3747 30.3614 42.5197 30.5547C42.8098 30.9576 42.6809 30.9093 43.2127 30.9093C43.4061 30.9415 43.4222 30.9093 43.3255 30.7481ZM42.3102 29.2816C42.278 29.2816 42.2458 29.2977 42.2297 29.2977C42.133 29.2977 42.0202 29.2977 41.9235 29.2977C41.8268 29.2977 41.714 29.2977 41.6173 29.2977C41.5206 29.2977 41.4722 29.2494 41.4722 29.1527C41.4722 29.0077 41.4722 28.8626 41.4722 28.7176C41.4722 28.6209 41.5367 28.5726 41.6334 28.5726C41.859 28.5726 42.0846 28.5726 42.3102 28.5887C42.5197 28.6048 42.6325 28.7498 42.6325 28.9271C42.6325 29.1205 42.5197 29.2333 42.3102 29.2816Z" fill="#005B9B"/>
<path d="M63.8075 28.0408C63.1307 28.0408 62.6472 28.4114 62.5022 29.0238C62.4216 29.33 62.4216 29.6362 62.4861 29.9424C62.5667 30.2969 62.76 30.587 63.0823 30.7804C63.9848 31.3122 65.0645 30.7804 65.1934 29.749C65.1934 29.6845 65.2095 29.6362 65.2095 29.5717C65.2257 28.6048 64.6616 28.0408 63.8075 28.0408ZM64.5327 29.9907C64.4199 30.2808 64.1782 30.4742 63.872 30.4903C63.5497 30.5064 63.2596 30.3614 63.1307 30.0552C62.9695 29.6845 62.9695 29.3139 63.1307 28.9432C63.2435 28.6693 63.5336 28.5081 63.8398 28.5242C64.1621 28.5403 64.4038 28.7015 64.5166 29.0077C64.5811 29.1688 64.5972 29.33 64.5811 29.5073C64.6133 29.6684 64.5972 29.8296 64.5327 29.9907Z" fill="#005B9B"/>
<path d="M58.409 28.8143C58.2478 28.3792 57.9255 28.1213 57.442 28.1052C57.1036 28.1052 56.7491 28.1052 56.4107 28.1052C56.1851 28.1052 56.1689 28.1375 56.1689 28.3631C56.1689 28.7498 56.1689 29.1366 56.1689 29.5072C56.1689 29.8296 56.1689 30.1357 56.1689 30.458C56.1689 30.5547 56.1689 30.6675 56.1689 30.7642C56.1689 30.877 56.2173 30.9254 56.3301 30.9254C56.733 30.9254 57.1359 30.9576 57.5387 30.9093C57.99 30.8448 58.2962 30.6031 58.4412 30.168C58.5862 29.7167 58.5701 29.2494 58.409 28.8143ZM57.861 30.1035C57.7966 30.2969 57.6515 30.4097 57.4582 30.4419C57.2648 30.4742 57.0553 30.458 56.8619 30.458C56.733 30.458 56.7169 30.3775 56.7169 30.2808C56.7169 30.0229 56.7169 29.7812 56.7169 29.5234C56.7169 29.2816 56.7169 29.0399 56.7169 28.7982C56.7169 28.6048 56.7491 28.5726 56.9264 28.5726C57.0875 28.5726 57.2487 28.5726 57.4098 28.6048C57.6354 28.637 57.7966 28.7659 57.861 28.9916C57.9738 29.3461 57.9738 29.7329 57.861 30.1035Z" fill="#005B9B"/>
<path d="M89.5276 28.8627C89.3665 28.3793 89.028 28.1214 88.4962 28.1053C88.1578 28.0892 87.8355 28.1053 87.4971 28.1053C87.2715 28.1053 87.2393 28.1214 87.2393 28.3631C87.2393 28.7499 87.2393 29.1206 87.2393 29.5073C87.2393 29.9102 87.2393 30.3131 87.2393 30.716C87.2393 30.8932 87.2715 30.9255 87.4165 30.9255C87.8194 30.9255 88.2223 30.9577 88.6252 30.9094C89.0603 30.8449 89.3503 30.6032 89.4954 30.2003C89.6727 29.7491 89.6726 29.2978 89.5276 28.8627ZM88.9636 30.1036C88.8991 30.3131 88.738 30.4098 88.5446 30.442C88.3834 30.4742 88.2062 30.4581 88.045 30.4581C87.8839 30.4581 87.8516 30.4259 87.8516 30.2647C87.8516 30.0069 87.8516 29.7652 87.8516 29.5073C87.8516 29.2656 87.8516 29.0239 87.8516 28.7821C87.8516 28.6049 87.8839 28.5726 88.0611 28.5726C88.2223 28.5726 88.3834 28.5726 88.5446 28.6049C88.7702 28.6371 88.9313 28.766 88.9958 28.9755C89.0764 29.3462 89.0764 29.7329 88.9636 30.1036Z" fill="#005B9B"/>
<path d="M52.8649 30.6837C52.5426 29.8941 52.2203 29.1045 51.9141 28.2987C51.8497 28.1537 51.7691 28.0731 51.624 28.0892C51.5918 28.0892 51.5596 28.0892 51.5435 28.0892C51.2373 28.0892 51.2373 28.0892 51.1245 28.3631C50.8344 29.1206 50.5282 29.878 50.2381 30.6354C50.222 30.6837 50.2059 30.7321 50.1898 30.7804C50.1576 30.8771 50.2059 30.9255 50.2865 30.9255C50.3832 30.9255 50.4799 30.9255 50.5765 30.9255C50.6732 30.9255 50.7377 30.8771 50.7699 30.7804C50.8022 30.6999 50.8344 30.6193 50.8666 30.5387C50.9633 30.2809 50.9633 30.2809 51.2534 30.2809C51.3984 30.2809 51.5435 30.2809 51.6885 30.2809C52.1558 30.2809 52.0753 30.2325 52.2525 30.6676C52.3492 30.9255 52.3492 30.9255 52.6393 30.9255C52.6554 30.9255 52.6876 30.9255 52.7038 30.9255C52.9455 30.9416 52.9616 30.9255 52.8649 30.6837ZM51.7207 29.7974C51.5757 29.7974 51.4468 29.7974 51.3017 29.7974C51.2212 29.7974 51.1567 29.7652 51.1889 29.6685C51.2695 29.3784 51.3823 29.1044 51.4951 28.7983C51.6079 28.9111 51.624 29.0239 51.6563 29.1206C51.7207 29.2817 51.7852 29.4429 51.8335 29.604C51.8819 29.7652 51.8658 29.7974 51.7207 29.7974Z" fill="#005B9B"/>
<path d="M90.591 0.00035667C89.9464 -0.0157585 89.3501 0.516043 89.334 1.22511C89.334 1.90195 89.8819 2.44987 90.5587 2.44987C91.2356 2.44987 91.7835 1.91807 91.7996 1.24123C91.8157 0.564389 91.2678 0.0164719 90.591 0.00035667ZM90.5748 2.25649C89.9947 2.25649 89.5435 1.78914 89.5596 1.209C89.5596 0.62885 90.0108 0.193739 90.591 0.193739C91.1711 0.193739 91.6062 0.644965 91.6062 1.22511C91.6062 1.78914 91.1389 2.25649 90.5748 2.25649Z" fill="#005B9B"/>
<path d="M91.1228 1.7086C91.0422 1.56356 90.9455 1.43464 90.8489 1.33795C90.8811 1.27349 90.9294 1.25737 90.9617 1.24126C91.0906 1.14457 91.1389 1.01564 91.1067 0.854492C91.0745 0.69334 90.9617 0.612764 90.8005 0.580534C90.6071 0.548303 90.4137 0.548303 90.2365 0.564418C90.0753 0.564418 90.0431 0.596649 90.0431 0.773916C90.0431 0.951183 90.0431 1.12845 90.0431 1.30572C90.0431 1.45075 90.0431 1.57968 90.0431 1.72471C90.0431 1.80529 90.0592 1.88587 90.172 1.88587C90.2848 1.88587 90.3009 1.80529 90.3009 1.72471C90.3009 1.64414 90.3009 1.57968 90.3171 1.4991C90.3332 1.38629 90.4137 1.33795 90.5265 1.38629C90.591 1.41852 90.6232 1.46687 90.6716 1.51522C90.736 1.61191 90.8005 1.69248 90.865 1.78917C90.8972 1.83752 90.9455 1.88587 91.0261 1.88587C91.0745 1.88587 91.1389 1.90198 91.1712 1.85363C91.1712 1.78917 91.155 1.74083 91.1228 1.7086ZM90.7038 1.11234C90.6555 1.12845 90.6232 1.12845 90.5749 1.12845C90.4782 1.11234 90.3654 1.16068 90.3332 1.03176C90.2848 0.886723 90.3493 0.790031 90.5104 0.790031C90.5749 0.790031 90.6394 0.790031 90.7038 0.806147C90.8005 0.822262 90.8489 0.870607 90.8489 0.967299C90.8489 1.04787 90.7844 1.09622 90.7038 1.11234Z" fill="#005B9B"/>
</svg>
