<svg width="4" height="61" viewBox="0 0 4 61" fill="none" xmlns="http://www.w3.org/2000/svg">
<g clip-path="url(#clip0_1_192)">
<g clip-path="url(#clip1_1_192)">
<g clip-path="url(#clip2_1_192)">
<path d="M-0.401453 25.3752C-0.408487 25.4818 -0.431774 25.5866 -0.470515 25.686C-0.517124 25.8041 -0.587 25.9115 -0.675989 26.002C-0.826165 26.1523 -1.01918 26.2524 -1.22853 26.2887L-1.28723 26.2973L-1.35285 26.3007L-5.74898 26.4665L-5.85257 19.8257L-1.81215 19.2024C-1.6423 19.1837 -1.47045 19.1983 -1.30623 19.2455C-1.06053 19.3211 -0.846398 19.4751 -0.696711 19.6841C-0.613493 19.8012 -0.550465 19.9313 -0.510233 20.0692C-0.494958 20.1224 -0.483418 20.1766 -0.475699 20.2315L-0.470515 20.304C-0.46839 20.3368 -0.46724 20.3696 -0.467064 20.4024L-0.399721 25.3148V25.3752M0.031949 28.4038L0.27886 28.3693C0.442229 28.341 0.600499 28.2886 0.748516 28.2139C0.972417 28.1034 1.17475 27.9537 1.34595 27.7719C1.68857 27.4009 1.87583 26.9127 1.86913 26.4078L1.78625 18.4789L1.7828 18.2372C1.74613 17.8288 1.56417 17.4471 1.26998 17.1614C1.03996 16.937 0.751633 16.7814 0.437713 16.7125C0.353894 16.695 0.269152 16.6824 0.183892 16.6745C0.133819 16.6711 0.0871992 16.6676 0.0388522 16.6676C0.00537157 16.6682 -0.0280542 16.6705 -0.0612931 16.6745L-7.94531 17.7537L-7.74674 35.3658L-5.59875 35.63L-5.70581 28.5713L-2.25936 28.5627L-0.429078 36.262L1.92612 36.5417L0.031949 28.4038Z" fill="#FDB913"/>
<path d="M-0.401452 25.3752C-0.408486 25.4818 -0.431773 25.5866 -0.470514 25.686C-0.517122 25.8041 -0.586999 25.9115 -0.675988 26.002C-0.826164 26.1523 -1.01918 26.2524 -1.22853 26.2887L-1.28723 26.2973L-1.35285 26.3007L-5.74898 26.4665L-5.85257 19.8257L-1.81214 19.2024C-1.6423 19.1837 -1.47045 19.1983 -1.30623 19.2455C-1.06053 19.3211 -0.846397 19.4751 -0.69671 19.6841C-0.613492 19.8012 -0.550464 19.9313 -0.510232 20.0692C-0.494957 20.1224 -0.483417 20.1766 -0.475698 20.2315L-0.470514 20.304C-0.468388 20.3368 -0.467239 20.3696 -0.467063 20.4024L-0.39972 25.3148V25.3752H-0.401452ZM0.0302179 28.4038L0.278861 28.3693C0.44223 28.341 0.6005 28.2886 0.748517 28.2139C0.972418 28.1034 1.17475 27.9537 1.34595 27.7719C1.68857 27.4009 1.87583 26.9127 1.86914 26.4078L1.78625 18.4789L1.7828 18.2372C1.74613 17.8288 1.56417 17.4471 1.26998 17.1614C1.03996 16.937 0.751634 16.7814 0.437714 16.7125C0.353895 16.695 0.269152 16.6824 0.183894 16.6745C0.13382 16.6711 0.0872001 16.6676 0.0388531 16.6676C0.00537289 16.6682 -0.0280531 16.6705 -0.061292 16.6745L-7.94531 17.7537L-7.74674 35.3658L-5.59875 35.63L-5.70581 28.5713L-2.25936 28.5627L-0.429077 36.262L1.92439 36.5417L0.0302179 28.4038Z" stroke="#174A7C" stroke-width="1.22594"/>
<path d="M-0.401453 25.3752C-0.408487 25.4818 -0.431774 25.5866 -0.470515 25.686C-0.517124 25.8041 -0.587 25.9115 -0.675989 26.002C-0.826165 26.1523 -1.01918 26.2524 -1.22853 26.2887L-1.28723 26.2973L-1.35285 26.3007L-5.74898 26.4665L-5.85257 19.8257L-1.81215 19.2024C-1.6423 19.1837 -1.47045 19.1983 -1.30623 19.2455C-1.06053 19.3211 -0.846398 19.4751 -0.696711 19.6841C-0.613493 19.8012 -0.550465 19.9313 -0.510233 20.0692C-0.494958 20.1224 -0.483418 20.1766 -0.475699 20.2315L-0.470515 20.304C-0.46839 20.3368 -0.46724 20.3696 -0.467064 20.4024L-0.399721 25.3148V25.3752M0.031949 28.4038L0.27886 28.3693C0.442229 28.341 0.600499 28.2886 0.748516 28.2139C0.972417 28.1034 1.17475 27.9537 1.34595 27.7719C1.68857 27.4009 1.87583 26.9127 1.86913 26.4078L1.78625 18.4789L1.7828 18.2372C1.74613 17.8288 1.56417 17.4471 1.26998 17.1614C1.03996 16.937 0.751633 16.7814 0.437713 16.7125C0.353894 16.695 0.269152 16.6824 0.183892 16.6745C0.133819 16.6711 0.0871992 16.6676 0.0388522 16.6676C0.00537157 16.6682 -0.0280542 16.6705 -0.0612931 16.6745L-7.94531 17.7537L-7.74674 35.3658L-5.59875 35.63L-5.70581 28.5713L-2.25936 28.5627L-0.429078 36.262L1.92612 36.5417L0.031949 28.4038Z" fill="#FDB913"/>
<path d="M-0.401452 25.3752C-0.408486 25.4818 -0.431773 25.5866 -0.470514 25.686C-0.517122 25.8041 -0.586999 25.9115 -0.675988 26.002C-0.826164 26.1523 -1.01918 26.2524 -1.22853 26.2887L-1.28723 26.2973L-1.35285 26.3007L-5.74898 26.4665L-5.85257 19.8257L-1.81214 19.2024C-1.6423 19.1837 -1.47045 19.1983 -1.30623 19.2455C-1.06053 19.3211 -0.846397 19.4751 -0.69671 19.6841C-0.613492 19.8012 -0.550464 19.9313 -0.510232 20.0692C-0.494957 20.1224 -0.483417 20.1766 -0.475698 20.2315L-0.470514 20.304C-0.468388 20.3368 -0.467239 20.3696 -0.467063 20.4024L-0.39972 25.3148V25.3752H-0.401452ZM0.0302179 28.4038L0.278861 28.3693C0.44223 28.341 0.6005 28.2886 0.748517 28.2139C0.972418 28.1034 1.17475 27.9537 1.34595 27.7719C1.68857 27.4009 1.87583 26.9127 1.86914 26.4078L1.78625 18.4789L1.7828 18.2372C1.74613 17.8288 1.56417 17.4471 1.26998 17.1614C1.03996 16.937 0.751634 16.7814 0.437714 16.7125C0.353895 16.695 0.269152 16.6824 0.183894 16.6745C0.13382 16.6711 0.0872001 16.6676 0.0388531 16.6676C0.00537289 16.6682 -0.0280531 16.6705 -0.061292 16.6745L-7.94531 17.7537L-7.74674 35.3658L-5.59875 35.63L-5.70581 28.5713L-2.25936 28.5627L-0.429077 36.262L1.92439 36.5417L0.0302179 28.4038Z" stroke="#FDB913" stroke-width="0.334976"/>
<path d="M-72.7763 39.7585C-73.8244 39.926 -74.3476 40.0124 -75.3922 40.1902V41.2072C-74.4339 41.0432 -73.9522 40.9655 -72.9922 40.8101V41.6441C-73.9522 41.796 -74.4339 41.8737 -75.3922 42.036V43.2654C-74.2992 43.0824 -73.7519 42.9926 -72.6554 42.8234V43.685C-73.9056 43.8818 -75.154 44.0856 -76.4023 44.2963V39.522C-75.1937 39.3113 -73.985 39.1076 -72.7763 38.909V39.7585ZM-68.7566 38.2995L-67.6705 38.1475C-67.0144 39.1836 -66.3565 40.2161 -65.7021 41.2521V37.8851L-64.7352 37.7625V42.5972C-65.1496 42.6455 -65.3568 42.6714 -65.7712 42.7232L-67.7914 39.5634V42.9822L-68.7583 43.1135L-68.7566 38.2995ZM-57.0238 36.932V37.7953C-57.6195 37.8488 -57.9182 37.8765 -58.5139 37.9334V41.9376L-59.5603 42.036V38.037C-60.1577 38.0975 -60.4582 38.1286 -61.0539 38.1924V37.3343C-59.7123 37.1875 -58.3689 37.0546 -57.0238 36.932ZM-49.6026 37.2497C-50.6558 37.3101 -51.1842 37.3429 -52.2392 37.4154V38.4549C-51.2723 38.3893 -50.7871 38.3599 -49.8184 38.3047V39.1559C-50.7853 39.2112 -51.2723 39.2423 -52.2409 39.3061V40.5666C-51.1358 40.4924 -50.5833 40.4596 -49.4782 40.4009V41.2832C-50.7387 41.3523 -51.9992 41.43 -53.2579 41.5128V36.6212C-52.0389 36.5348 -50.8216 36.4537 -49.6008 36.3794L-49.6026 37.2497ZM-44.4916 36.9959V38.3219L-43.3692 38.2874C-43.1976 38.2906 -43.0271 38.2582 -42.8685 38.1924C-42.6699 38.0923 -42.5715 37.9058 -42.5715 37.6278C-42.5715 37.3274 -42.6665 37.1288 -42.8564 37.0321C-43.0093 36.9689 -43.1751 36.9435 -43.3399 36.9579C-43.8009 36.9717 -44.0306 36.9786 -44.4916 36.9959ZM-42.335 36.1981C-42.1544 36.2697 -41.9942 36.3848 -41.8688 36.5331C-41.6405 36.7881 -41.5171 37.1199 -41.5234 37.4621C-41.5264 37.7058 -41.5886 37.9453 -41.7047 38.1596C-41.8239 38.3893 -42.297 38.6535 -42.297 38.6535C-42.297 38.6707 -41.9033 38.8676 -41.8083 39.0333C-41.7116 39.2008 -41.6633 39.4581 -41.6633 39.8052V40.1384C-41.6633 40.3629 -41.6529 40.5183 -41.6357 40.5977C-41.6255 40.6551 -41.6032 40.7096 -41.5701 40.7576C-41.537 40.8056 -41.494 40.8458 -41.444 40.8757V41C-41.9033 41.0087 -42.1347 41.0121 -42.594 41.0242C-42.665 40.8013 -42.7028 40.5692 -42.7062 40.3352L-42.7131 39.876C-42.7183 39.56 -42.7718 39.351 -42.8789 39.2492C-42.9825 39.1456 -43.1828 39.0989 -43.4728 39.1076L-44.4916 39.1387V41.0743L-45.5103 41.1088V36.1774C-44.5555 36.1394 -44.0772 36.1222 -43.1241 36.0945C-42.7822 36.0911 -42.5197 36.1256 -42.335 36.1981ZM-34.8343 37.0252C-34.9937 36.9046 -35.1907 36.8447 -35.3903 36.856H-36.3296V38.3202C-35.9532 38.3202 -35.7649 38.3202 -35.3903 38.3237C-35.1894 38.3371 -34.9908 38.2742 -34.8343 38.1475C-34.7013 38.0301 -34.6357 37.8402 -34.6357 37.5812C-34.6357 37.3222 -34.7013 37.1357 -34.8343 37.0252ZM-34.0383 38.8279C-34.3318 39.0696 -34.7462 39.1853 -35.2901 39.1818L-36.3296 39.1766V40.9655H-37.3656V35.9926C-36.5091 35.9892 -36.0792 35.9875 -35.2228 35.9926C-34.7272 35.9926 -34.3335 36.1256 -34.04 36.3863C-33.7465 36.6453 -33.5997 37.0459 -33.5997 37.5846C-33.5997 38.1752 -33.7447 38.5896 -34.0383 38.8279ZM-28.5854 36.9872V38.334L-27.4631 38.3772C-27.2936 38.3928 -27.1228 38.3716 -26.9623 38.315C-26.7655 38.2287 -26.6653 38.0439 -26.6653 37.7625C-26.6653 37.4569 -26.762 37.2497 -26.952 37.1357C-27.1018 37.0624 -27.2669 37.0257 -27.4337 37.0287L-28.5854 36.9872ZM-26.4305 36.3259C-26.2458 36.4122 -26.0904 36.5383 -25.9643 36.6989C-25.7354 36.9683 -25.6131 37.3123 -25.6207 37.6658C-25.6214 37.9089 -25.6826 38.148 -25.7986 38.3617C-25.9194 38.5861 -26.3908 38.8244 -26.3908 38.8244C-26.3908 38.8399 -25.9971 39.0679 -25.9022 39.244C-25.8055 39.4201 -25.7571 39.686 -25.7571 40.0383V40.375C-25.7571 40.6046 -25.7485 40.7617 -25.7312 40.8446C-25.7205 40.9046 -25.6979 40.9617 -25.6647 41.0128C-25.6315 41.0638 -25.5883 41.1076 -25.5378 41.1416V41.2677L-26.6895 41.2107C-26.7614 40.9815 -26.7992 40.7429 -26.8018 40.5027C-26.8038 40.3473 -26.8056 40.1919 -26.8069 40.0365C-26.8121 39.7154 -26.8674 39.4995 -26.9727 39.389C-27.078 39.2768 -27.2766 39.2164 -27.5667 39.2025C-27.9742 39.1853 -28.1779 39.1784 -28.5854 39.1646V41.1312C-28.925 41.1181 -29.2645 41.106 -29.6042 41.095V36.0842C-28.6493 36.1118 -28.171 36.1273 -27.2179 36.1653C-26.876 36.1843 -26.6135 36.2396 -26.4305 36.3259ZM-20.5391 41.5785L-21.5751 41.5042V36.4537L-20.5391 36.5227V41.5785ZM-15.6889 40.4147C-15.6543 40.6512 -15.5939 40.8308 -15.4989 40.9534C-15.3262 41.1779 -15.0327 41.3125 -14.6131 41.354C-14.3628 41.3782 -14.159 41.3713 -14.0019 41.3315C-13.7066 41.2556 -13.5581 41.0725 -13.5581 40.7859C-13.5571 40.7044 -13.5765 40.624 -13.6145 40.5519C-13.6525 40.4799 -13.7079 40.4184 -13.7757 40.3732C-13.9891 40.2366 -14.222 40.133 -14.4664 40.0659L-15.0051 39.8932C-15.5352 39.724 -15.8995 39.56 -16.0963 39.4028C-16.4313 39.1387 -16.6005 38.7588 -16.6005 38.2598C-16.6005 37.8057 -16.4365 37.4413 -16.1084 37.1702C-15.7804 36.8974 -15.2969 36.7904 -14.6632 36.8491C-14.1314 36.9009 -13.679 37.0856 -13.3043 37.4085C-12.9296 37.7297 -12.7345 38.1631 -12.7155 38.707C-13.0481 38.6721 -13.3808 38.6381 -13.7135 38.6051C-13.7161 38.4654 -13.7542 38.3287 -13.8243 38.2079C-13.8944 38.087 -13.9941 37.986 -14.1141 37.9144C-14.3042 37.805 -14.5169 37.7406 -14.7357 37.7262C-14.9599 37.692 -15.1892 37.7282 -15.3919 37.8298C-15.4699 37.8728 -15.5343 37.9369 -15.5777 38.0148C-15.621 38.0926 -15.6416 38.1811 -15.637 38.2701C-15.637 38.4514 -15.5542 38.593 -15.3953 38.6984C-15.2917 38.7674 -15.0707 38.8589 -14.734 38.9712C-14.3852 39.0886 -14.2108 39.1473 -13.862 39.2682C-13.4787 39.3977 -13.1921 39.5496 -13.0004 39.724C-12.7051 39.9951 -12.5567 40.3577 -12.5567 40.8118C-12.5567 41.278 -12.7328 41.6441 -13.0833 41.9152C-13.4338 42.1845 -13.9294 42.2864 -14.5717 42.2242C-15.2278 42.1586 -15.7424 41.9583 -16.1188 41.6216C-16.3021 41.4605 -16.4476 41.2608 -16.5449 41.037C-16.6422 40.8131 -16.6889 40.5706 -16.6817 40.3266C-16.2845 40.3611 -16.086 40.3784 -15.6889 40.4164M-5.03869 39.0161C-6.08851 38.871 -6.61342 38.802 -7.66324 38.6707V39.7585C-6.69975 39.8794 -6.21801 39.9433 -5.25452 40.0762V40.9672C-6.05672 40.855 -6.85965 40.7479 -7.66324 40.646V41.9635C-6.56507 42.1051 -6.01599 42.1793 -4.91782 42.333V43.2568C-6.16966 43.0824 -7.42151 42.9149 -8.6768 42.7543V37.6382C-7.46329 37.7878 -6.25056 37.9438 -5.03869 38.1061V39.0161ZM-0.255783 42.3762C-0.224709 42.6162 -0.162552 42.8027 -0.0675812 42.9339C0.103355 43.1756 0.396896 43.3293 0.813026 43.3984C1.06167 43.4398 1.26196 43.4467 1.41736 43.4156C1.7109 43.3587 1.85939 43.1843 1.85939 42.8925C1.8596 42.8084 1.84019 42.7255 1.80272 42.6502C1.76525 42.575 1.71075 42.5095 1.64355 42.4591C1.43343 42.3076 1.20256 42.1872 0.958069 42.1016C0.743958 42.0153 0.636902 41.9756 0.422791 41.891C-0.103844 41.6838 -0.464714 41.4938 -0.663284 41.3212C-0.994804 41.0294 -1.16229 40.6322 -1.16229 40.1263C-1.16229 39.6653 -0.999985 39.3079 -0.673645 39.0523C-0.345573 38.7985 0.130981 38.7208 0.762947 38.8227C1.28958 38.909 1.74025 39.1283 2.11149 39.4788C2.48445 39.8311 2.67957 40.2834 2.69855 40.8377L1.70572 40.6668C1.70199 40.5226 1.66384 40.3814 1.59446 40.2549C1.52508 40.1285 1.42647 40.0204 1.30685 39.9398C1.12186 39.8173 0.911858 39.7377 0.692162 39.7067C0.419342 39.6636 0.201782 39.6843 0.0377426 39.7706C-0.124565 39.857 -0.205711 40.0003 -0.205711 40.2006C-0.205711 40.3836 -0.122833 40.5338 0.0360184 40.6512C0.137894 40.7272 0.357185 40.836 0.692162 40.9724L1.55895 41.3298C1.93882 41.4869 2.22372 41.6613 2.41366 41.8513C2.70719 42.1448 2.85396 42.5229 2.85396 42.984C2.85396 43.4571 2.68129 43.818 2.3325 44.0701C1.98199 44.3204 1.48988 44.3912 0.852737 44.2842C0.201782 44.1754 -0.309319 43.9388 -0.684006 43.571C-0.865646 43.3966 -1.00914 43.1864 -1.10543 42.9537C-1.20172 42.721 -1.24872 42.4708 -1.24345 42.2191L-0.255783 42.3745" fill="#174A7C"/>
</g>
</g>
</g>
<defs>
<clipPath id="clip0_1_192">
<rect width="84.4398" height="60.3141" fill="white" transform="translate(-81.3564 0.036499)"/>
</clipPath>
<clipPath id="clip1_1_192">
<rect width="84.4398" height="60.3141" fill="white" transform="translate(-81.3564 0.036499)"/>
</clipPath>
<clipPath id="clip2_1_192">
<rect width="84.4398" height="28.7337" fill="white" transform="translate(-81.3564 15.8268)"/>
</clipPath>
</defs>
</svg>
